<svg width="139" height="143" viewBox="0 0 139 143" fill="none" xmlns="http://www.w3.org/2000/svg">
<path fill-rule="evenodd" clip-rule="evenodd" d="M65.9346 0C29.5057 0 0 29.5057 0 65.9345C0 95.1106 18.8738 119.754 45.0828 128.49C48.3795 129.067 49.6158 127.089 49.6158 125.358C49.6158 123.792 49.5333 118.6 49.5333 113.078C32.9673 116.127 28.6815 109.039 27.3628 105.33C26.6211 103.435 23.4068 97.5831 20.6045 96.0172C18.2968 94.7809 15.0001 91.7314 20.5221 91.649C25.7145 91.5666 29.4233 96.4293 30.6596 98.4073C36.5937 108.38 46.0718 105.578 49.863 103.847C50.4399 99.5612 52.1707 96.6765 54.0663 95.0282C39.3959 93.3798 24.0661 87.6929 24.0661 62.473C24.0661 55.3026 26.6211 49.3685 30.8244 44.7531C30.1651 43.1047 27.8573 36.3464 31.4837 27.2804C31.4837 27.2804 37.0058 25.5496 49.6158 34.0387C54.8905 32.5552 60.495 31.8134 66.0994 31.8134C71.7038 31.8134 77.3083 32.5552 82.583 34.0387C95.193 25.4672 100.715 27.2804 100.715 27.2804C104.341 36.3464 102.034 43.1047 101.374 44.7531C105.578 49.3685 108.133 55.2202 108.133 62.473C108.133 87.7754 92.7205 93.3798 78.05 95.0282C80.4402 97.0886 82.5006 101.045 82.5006 107.226C82.5006 116.045 82.4182 123.133 82.4182 125.358C82.4182 127.089 83.6545 129.149 86.9512 128.49C100.04 124.071 111.414 115.659 119.472 104.437C127.53 93.2155 131.866 79.7495 131.869 65.9345C131.869 29.5057 102.363 0 65.9346 0Z" fill="black"/>
<path d="M133.54 101.593C125.944 104.373 119.318 107.25 112.557 111.718C109.575 113.688 106.192 116.055 103.629 118.53C102.212 119.82 99.8042 121.762 98.3956 123.974C96.6321 120.405 94.7964 116.417 92.6565 113.028C91.1309 110.612 83.741 111.555 85.5295 114.387C88.7353 119.462 90.8719 125.079 93.898 130.257C95.1644 132.422 100.421 130.758 101.88 129.777C106.676 126.54 109.151 121.3 113.253 117.341C119.521 111.284 127.974 107.563 136.048 104.608C141.499 102.38 137.603 100.11 133.546 101.595" fill="#37B34A"/>
</svg>
